<svg width="50" height="51" viewBox="0 0 50 51" fill="none" xmlns="http://www.w3.org/2000/svg">
<path fill-rule="evenodd" clip-rule="evenodd" d="M25 3.24433C19.8067 3.24503 14.7831 5.09336 10.8277 8.4587C6.87231 11.824 4.24326 16.4868 3.41082 21.613C2.57839 26.7391 3.59687 31.9943 6.28408 36.4383C8.97129 40.8823 13.1519 44.2253 18.0782 45.8693C19.1719 46.0725 19.6407 45.4006 19.6407 44.8225V41.1037C13.5625 42.4162 12.2813 38.1662 12.2813 38.1662C11.8539 36.8269 10.9543 35.6885 9.75003 34.9631C7.76566 33.6193 9.90628 33.635 9.90628 33.635C10.5994 33.7329 11.261 33.9879 11.8405 34.3806C12.42 34.7732 12.9021 35.2931 13.25 35.9006C13.8553 36.9861 14.8668 37.7868 16.0623 38.1267C17.2577 38.4666 18.5392 38.3178 19.625 37.7131C19.7133 36.6044 20.202 35.5658 21 34.7912C16.1563 34.2287 11.0469 32.3537 11.0469 23.9787C11.0115 21.8035 11.8176 19.6988 13.2969 18.1037C12.6273 16.2196 12.7056 14.1505 13.5157 12.3225C13.5157 12.3225 15.3438 11.7287 19.5313 14.5568C23.1117 13.5802 26.8884 13.5802 30.4688 14.5568C34.6407 11.7287 36.4688 12.3225 36.4688 12.3225C37.2788 14.1505 37.3571 16.2196 36.6875 18.1037C38.1669 19.6988 38.973 21.8035 38.9375 23.9787C38.9375 32.385 33.8282 34.2287 28.9532 34.7756C29.4754 35.3049 29.8781 35.94 30.1341 36.6381C30.3902 37.3362 30.4936 38.081 30.4375 38.8225V44.8225C30.4375 45.5412 30.8282 46.0881 32 45.8693C36.9327 44.2233 41.1177 40.8738 43.8045 36.4216C46.4913 31.9694 47.5042 26.7057 46.6615 21.5743C45.8188 16.4429 43.1757 11.7796 39.2061 8.42053C35.2365 5.06146 30.2001 3.22637 25 3.24433Z" fill="white" fill-opacity="0.5"/>
</svg>
